<?xml version="1.0" encoding="iso-8859-1"?>
<!-- Generator: Adobe Illustrator 19.0.0, SVG Export Plug-In . SVG Version: 6.00 Build 0)  -->
<svg version="1.1" id="Layer_1" xmlns="http://www.w3.org/2000/svg" xmlns:xlink="http://www.w3.org/1999/xlink" x="0px" y="0px"
	 viewBox="0 0 330 330" style="enable-background:new 0 0 330 330;" xml:space="preserve">
<g id="XMLID_232_">
	<polygon id="XMLID_233_" points="200,99.997 291.213,99.997 200,8.787 	"/>
	<path id="XMLID_235_" d="M300,129.997H185c-8.284,0-15-6.716-15-15V0H45c-8.284,0-15,6.716-15,15v155h270V129.997z"/>
	<path id="XMLID_236_" d="M168.315,267.636v-17.244c0-3.887-1.446-4.624-4.113-4.624h-3.996v26.547h3.996
		C166.807,272.315,168.315,271.549,168.315,267.636z"/>
	<path id="XMLID_237_" d="M45,330h240c8.284,0,15-6.716,15-15V200H30v115C30,323.284,36.716,330,45,330z M190.245,239.727
		c0-3.089,2.451-5.418,5.703-5.418h20.08c3.037,0,5.418,2.48,5.418,5.645c0,3.261-2.381,5.814-5.418,5.814h-14.039v7.601h4.963
		c3.005,0,5.359,2.504,5.359,5.701c0,3.153-2.305,5.531-5.359,5.531h-4.963v13.755c0,3.089-2.525,5.418-5.873,5.418
		c-3.348,0-5.871-2.329-5.871-5.418V239.727z M148.462,239.669c0-3.006,2.504-5.36,5.701-5.36h10.039
		c9.929,0,15.858,6.013,15.858,16.083v17.244c0,10.104-5.929,16.138-15.858,16.138h-10.039c-3.145,0-5.701-2.431-5.701-5.418
		V239.669z M108.554,239.669c0-2.873,2.301-5.175,5.354-5.354c0.078-0.005,0.156-0.007,0.234-0.007h10.436
		c9.821,0,15.686,5.99,15.686,16.024v0.568c0,10.068-5.906,16.08-15.797,16.08h-4.17v11.317c0,3.07-2.58,5.475-5.873,5.475
		c-3.291,0-5.869-2.404-5.869-5.475V239.669z"/>
	<path id="XMLID_242_" d="M128.52,251.07v-0.679c0-3.887-1.426-4.624-4.055-4.624h-4.17v9.98h4.17
		C127.095,255.748,128.52,255.003,128.52,251.07z"/>
</g>
<g>
</g>
<g>
</g>
<g>
</g>
<g>
</g>
<g>
</g>
<g>
</g>
<g>
</g>
<g>
</g>
<g>
</g>
<g>
</g>
<g>
</g>
<g>
</g>
<g>
</g>
<g>
</g>
<g>
</g>
</svg>
